<svg width="30" height="31" viewBox="0 0 30 31" fill="none" xmlns="http://www.w3.org/2000/svg">
<path d="M20.843 5.4779C20.843 4.66869 21.514 4.01737 22.3035 4.01737H26.3495C27.1587 4.01737 27.8101 4.66869 27.8101 5.4779V16.945C27.8101 17.7542 27.1587 18.4055 26.3495 18.4055H22.3232C21.514 18.4055 20.8627 17.7542 20.8627 16.945L20.843 5.4779ZM3.71137 14.4779C2.84295 13.7871 2.7048 12.524 3.39559 11.6555C3.6719 11.3003 4.06664 11.0634 4.50085 10.9647C3.63243 10.274 3.49427 9.0108 4.18506 8.16211C4.46138 7.80685 4.85611 7.57001 5.31006 7.45158C4.44164 6.7608 4.30348 5.49764 5.01401 4.62922C5.38901 4.15553 5.96138 3.87922 6.57322 3.87922L17.9219 3.99764C18.7311 3.99764 19.3824 4.64895 19.3824 5.45816V16.945C19.3824 18.7608 13.5798 22.0963 13.2837 23.8924C13.0864 25.0766 13.343 28.0371 12.5535 28.0371C11.1916 28.0371 9.47453 27.524 9.47453 24.524C9.47453 21.8792 11.2114 18.445 11.2114 18.445H4.18506C3.0798 18.445 2.19164 17.5568 2.19164 16.4516C2.15216 15.4845 2.80348 14.6753 3.71137 14.4779Z" fill="#080202"/>
</svg>
