<svg width="30" height="31" viewBox="0 0 30 31" fill="none" xmlns="http://www.w3.org/2000/svg">
<path d="M9.15705 26.4386C9.15705 27.2478 8.48599 27.8991 7.69652 27.8991H3.65047C2.84126 27.8991 2.18994 27.2478 2.18994 26.4386V14.9715C2.18994 14.1623 2.84126 13.511 3.65047 13.511H7.67678C8.48599 13.511 9.13731 14.1623 9.13731 14.9715L9.15705 26.4386ZM26.2886 17.4386C27.157 18.1294 27.2952 19.3926 26.6044 20.261C26.3281 20.6162 25.9334 20.8531 25.4992 20.9518C26.3676 21.6426 26.5057 22.9057 25.8149 23.7544C25.5386 24.1097 25.1439 24.3465 24.6899 24.4649C25.5584 25.1557 25.6965 26.4189 24.986 27.2873C24.611 27.761 24.0386 28.0373 23.4268 28.0373L12.0781 27.9189C11.2689 27.9189 10.6176 27.2675 10.6176 26.4583V14.9715C10.6176 13.1557 16.4202 9.82018 16.7163 8.02413C16.9136 6.83992 16.657 3.87939 17.4465 3.87939C18.8084 3.87939 20.5255 4.39255 20.5255 7.39255C20.5255 10.0373 18.7886 13.4715 18.7886 13.4715H25.8149C26.9202 13.4715 27.8084 14.3597 27.8084 15.4649C27.8478 16.432 27.1965 17.2412 26.2886 17.4386Z" fill="#080202"/>
</svg>
