<svg width="42" height="35" viewBox="0 0 42 35" fill="none" xmlns="http://www.w3.org/2000/svg">
<path d="M40.883 18.8709L36.5006 7.07179C36.3273 6.60515 35.9815 6.23359 35.5271 6.02523C35.0724 5.81726 34.5655 5.79773 34.0989 5.9707L31.1656 7.05999C30.2 7.41874 29.7061 8.49632 30.0647 9.46195L30.1123 9.59007C29.4183 9.85351 28.6437 9.56577 27.4598 9.06991C25.6921 8.32984 23.2945 7.33609 20.2508 9.23976C17.7805 7.70218 15.8422 8.08148 14.1255 8.42327C13.2536 8.59655 12.423 8.75968 11.5653 8.67093C11.5412 8.44554 11.4794 8.22343 11.3727 8.01507C11.1447 7.56991 10.7583 7.24054 10.2848 7.0878L7.3071 6.12726C6.83343 5.97452 6.32741 6.01609 5.88241 6.24359C5.43741 6.47163 5.10804 6.85804 4.95546 7.33148L1.09038 19.3102C0.774207 20.2906 1.31452 21.3455 2.29499 21.6616L5.27264 22.6225C5.45769 22.6825 5.651 22.7131 5.84553 22.7133C6.13796 22.7133 6.42866 22.6436 6.69718 22.5062C6.86304 22.4212 7.00639 22.308 7.13694 22.1826C7.1553 22.2733 7.17991 22.3629 7.2021 22.4529L6.45663 23.8466C6.13694 24.4446 6.07499 25.1698 6.28702 25.8359C6.49343 26.4844 6.92874 27.0024 7.49968 27.2876C7.97882 27.5446 8.52804 27.6403 9.06585 27.5604C8.91718 28.0534 8.91999 28.5941 9.08116 29.1009C9.28757 29.7494 9.72288 30.2676 10.2938 30.5528C10.891 30.8722 11.5784 30.9388 12.2298 30.7418C12.4861 30.6645 12.7286 30.5475 12.9486 30.395C13.1576 31.0335 13.5896 31.5431 14.154 31.8251C14.7511 32.1445 15.4385 32.2112 16.0899 32.0141C16.233 31.9708 16.372 31.9151 16.5055 31.8479C16.7014 32.6342 17.2605 33.3345 17.9575 33.7073C18.2904 33.8852 18.6824 33.9999 19.0894 33.9999C19.8289 33.9999 20.6175 33.6209 21.188 32.5546L21.2992 32.3465L21.4253 32.4126L21.7228 32.5677C22.0872 32.7553 22.4433 32.838 22.7782 32.838C23.6136 32.838 24.3153 32.3231 24.6741 31.6394C24.9211 31.1689 25.008 30.6095 24.8882 30.0666C25.1896 30.0822 25.4944 30.0463 25.7923 29.9561C26.4612 29.7534 27.0102 29.3042 27.338 28.6913C27.6029 28.1962 27.6987 27.6404 27.6189 27.0923C28.1784 27.3245 28.7973 27.3548 29.3874 27.176C30.0622 26.9716 30.6159 26.5183 30.9466 25.9001C31.2168 25.3946 31.3127 24.8265 31.2269 24.2673C32.1388 24.6309 33.0187 24.4646 33.6297 23.7952C34.2491 23.1169 34.4573 22.0776 34.2257 21.1501L34.376 21.0962L34.3846 21.0931L34.4471 21.2612C34.7265 22.0131 35.4418 22.4788 36.2005 22.4788C36.4218 22.4788 36.6414 22.4392 36.8488 22.362L39.7819 21.2727C40.7477 20.914 41.2416 19.8366 40.883 18.8709ZM6.59554 21.0862C6.53132 21.2851 6.39249 21.4476 6.20436 21.5439C6.01593 21.6401 5.80303 21.6579 5.60452 21.5939L2.62671 20.6328C2.21358 20.4996 1.98585 20.0551 2.11905 19.642L5.98428 7.66335C6.04835 7.46468 6.18718 7.3021 6.37522 7.20585C6.48655 7.14841 6.60995 7.11831 6.73522 7.11804C6.81666 7.11809 6.89759 7.1309 6.97507 7.15601L9.95288 8.11671C10.1516 8.18077 10.3141 8.3196 10.4104 8.50765C10.5066 8.69577 10.5244 8.90866 10.4604 9.10749L7.37468 18.6714C7.36116 18.6975 7.34811 18.7242 7.33882 18.7531C7.31171 18.8367 7.29077 18.9213 7.26694 19.0055L6.59554 21.0862ZM7.99632 26.3276C7.67538 26.1673 7.43413 25.8762 7.31718 25.5081C7.19311 25.1184 7.22694 24.6986 7.40991 24.3565L8.2521 22.7819L8.65483 22.0291C9.0296 21.3288 9.89796 21.0582 10.6026 21.4138C11.0649 21.737 11.7583 22.4243 11.2322 23.4077L10.9455 23.9437L9.98624 25.7372C9.60561 26.4459 8.71952 26.7148 7.99632 26.3276ZM12.7816 29.0001C12.5986 29.3426 12.2912 29.5937 11.916 29.7073C11.5411 29.821 11.1458 29.7826 10.7905 29.5928C10.4695 29.4325 10.2283 29.1413 10.1113 28.7732C9.98725 28.3837 10.0212 27.9638 10.2042 27.6218L10.9395 26.2473L11.8988 24.4537C12.0818 24.1115 12.3892 23.8605 12.7641 23.7468C13.1393 23.6328 13.5341 23.6713 13.8767 23.8544C14.219 24.0374 14.47 24.3448 14.5837 24.72C14.6973 25.0949 14.659 25.4901 14.4758 25.8326L14.2064 26.3365L14.2055 26.338L13.1111 28.3842L12.7816 29.0001ZM15.7762 30.9796C15.4011 31.0933 15.0062 31.0549 14.6507 30.8651C14.3298 30.7048 14.0887 30.4137 13.9715 30.0457C13.8479 29.6565 13.8813 29.2376 14.0636 28.8957L14.0644 28.8941L15.1589 26.848L15.1598 26.8462C15.343 26.5047 15.65 26.2544 16.0244 26.1409C16.3991 26.0266 16.7944 26.0652 17.1367 26.2485C17.8472 26.6286 18.1161 27.5159 17.7362 28.2264L17.189 29.2496L16.7039 30.1565L16.7033 30.1575L16.6418 30.2726C16.4588 30.6147 16.1512 30.8659 15.7762 30.9796ZM18.4673 32.7541C17.7587 32.3751 17.2517 31.4244 17.6573 30.6662L18.1423 29.7593L18.1429 29.758C18.332 29.4055 18.6683 29.1222 19.0658 28.981C19.4626 28.8399 19.8609 28.8587 20.1878 29.0336C20.9001 29.4144 21.015 29.7476 21.0392 29.9651C21.0762 30.2939 20.9369 30.7312 20.5884 31.3827L20.5878 31.3843L20.2346 32.0447C19.6363 33.1642 18.8708 32.9696 18.4673 32.7541ZM23.7169 31.1373C23.4619 31.6237 22.8996 31.9577 22.2176 31.6069L21.928 31.4557C21.8801 31.4304 21.8354 31.4069 21.7939 31.3853C22.0128 30.8984 22.1723 30.3694 22.1136 29.8448C22.0473 29.2534 21.7191 28.7601 21.1237 28.3441L23.2525 29.4873C23.9639 29.9868 23.9615 30.6712 23.7169 31.1373ZM32.8312 23.0665C32.4832 23.4481 32.0055 23.4805 31.4109 23.1622L29.8692 22.3376L29.866 22.3361C29.8502 22.3276 29.8337 22.3228 29.8176 22.3161L24.8462 19.6176C24.5844 19.4748 24.2559 19.5723 24.1134 19.8348C24.0796 19.8972 24.0583 19.9657 24.0509 20.0362C24.0435 20.1068 24.0501 20.1782 24.0703 20.2462C24.0904 20.3143 24.1238 20.3777 24.1685 20.4329C24.2132 20.488 24.2683 20.5338 24.3307 20.5676L29.4072 23.3233C29.7432 23.5203 29.9927 23.8302 30.1076 24.2087C30.2283 24.607 30.1876 25.0266 29.993 25.3904C29.7986 25.7541 29.472 26.0209 29.0737 26.1416C28.6746 26.2621 28.2553 26.2216 27.8919 26.0272L26.3591 25.2073C26.3321 25.1851 26.3031 25.1656 26.2723 25.149L22.5731 23.1711C22.5105 23.1376 22.442 23.1168 22.3713 23.1098C22.3007 23.1028 22.2294 23.1098 22.1614 23.1304C22.0935 23.151 22.0303 23.1848 21.9754 23.2299C21.9206 23.2749 21.8751 23.3303 21.8417 23.393C21.8082 23.4555 21.7874 23.5241 21.7804 23.5948C21.7735 23.6654 21.7805 23.7367 21.8011 23.8046C21.8217 23.8726 21.8555 23.9358 21.9005 23.9906C21.9456 24.0455 22.001 24.0909 22.0636 24.1244L25.6698 26.0526C25.6965 26.0744 25.7255 26.0944 25.7572 26.1112C26.1156 26.3029 26.3785 26.6245 26.4974 27.0173C26.6163 27.4098 26.5762 27.8233 26.3846 28.1816C26.193 28.54 25.8712 28.8026 25.4786 28.9218C25.0862 29.0405 24.6726 29.0006 24.3143 28.809L23.5318 28.3905C23.4932 28.3705 23.4524 28.3552 23.4101 28.345L20.2519 26.6491C19.9888 26.5069 19.661 26.6064 19.5201 26.8696C19.4865 26.9321 19.4655 27.0007 19.4584 27.0713C19.4513 27.1419 19.4582 27.2132 19.4787 27.2812C19.4991 27.3491 19.5328 27.4124 19.5777 27.4673C19.6227 27.5223 19.678 27.5678 19.7405 27.6014L20.4043 27.9578C19.9537 27.7917 19.4601 27.7603 18.9662 27.8833C19.1057 26.8599 18.609 25.8098 17.6465 25.295C17.0551 24.9787 16.3745 24.9098 15.7286 25.1008C15.7237 24.8653 15.6866 24.6317 15.6181 24.4063C15.4207 23.7548 14.9831 23.2202 14.3862 22.901C13.7862 22.5804 13.1141 22.5251 12.5058 22.6948C12.4955 21.7765 11.9126 21.0128 11.2184 20.5255C11.1945 20.507 11.1691 20.4906 11.1424 20.4764C10.1061 19.9223 8.85358 20.1618 8.08593 20.9817C8.0735 20.4196 8.15038 19.8551 8.30655 19.3027L11.3916 9.74077C12.4345 9.86148 13.3994 9.67015 14.3361 9.48343C15.8933 9.17374 17.3722 8.87937 19.2832 9.92101C18.8669 10.2525 18.4481 10.6308 18.0318 11.0513C17.7023 11.3846 17.3633 11.7173 17.0327 12.0419C15.8274 13.2258 14.7865 14.2482 14.4888 14.9738C14.4534 15.06 14.4409 15.1539 14.4526 15.2464C14.4642 15.3388 14.4995 15.4267 14.5551 15.5015C16.7065 18.3948 19.3138 17.413 21.408 16.6244C22.978 16.033 24.3339 15.5221 25.414 16.3769C25.4344 16.393 25.4559 16.4076 25.4784 16.4207C25.9943 16.7196 26.7048 17.0705 27.5276 17.4768C29.5167 18.4593 32.241 19.8048 32.945 20.8748C33.418 21.5934 33.268 22.588 32.8312 23.0665ZM33.7641 20.1676C32.8205 18.8878 30.1604 17.5714 28.0065 16.5078C27.2187 16.1186 26.5358 15.7815 26.0526 15.504C24.501 14.3048 22.7353 14.9696 21.0272 15.6129C19.0026 16.3749 17.2423 17.0376 15.6342 15.1244C16.0119 14.56 16.9139 13.6742 17.7903 12.8135C18.1246 12.4851 18.467 12.1487 18.8003 11.8119C19.3778 11.2287 19.9557 10.738 20.5191 10.3503C23.2421 8.4778 25.2607 9.32148 27.0422 10.067C27.8751 10.4158 28.7254 10.7717 29.5664 10.7717C29.8753 10.7717 30.1826 10.7153 30.4877 10.6013L34.0081 20.0798L33.7641 20.1676ZM39.4058 20.2593L36.4726 21.3486C36.0644 21.4992 35.6113 21.2916 35.4604 20.8848L31.0781 9.0853C31.0055 8.88968 31.0139 8.67624 31.1019 8.48405C31.19 8.29194 31.3462 8.14609 31.5419 8.07335L34.4751 6.98405C34.5619 6.95167 34.6539 6.93506 34.7465 6.93499C34.8588 6.93499 34.9709 6.95945 35.0766 7.0078C35.2686 7.09577 35.4144 7.25218 35.4871 7.44804L39.8695 19.2472C40.0207 19.6542 39.8126 20.1081 39.4058 20.2593Z" fill="#080202"/>
<path d="M8.2521 22.7819L7.40991 24.3565C7.22694 24.6986 7.19311 25.1184 7.31718 25.5081C7.43413 25.8762 7.67538 26.1673 7.99632 26.3276C8.71952 26.7148 9.60561 26.4459 9.98624 25.7372L10.9455 23.9437L11.2322 23.4077C11.7583 22.4243 11.0649 21.737 10.6026 21.4138C9.89796 21.0582 9.0296 21.3288 8.65483 22.0291L8.2521 22.7819ZM8.2521 22.7819V22.7819ZM40.883 18.8709L36.5006 7.07179C36.3273 6.60515 35.9815 6.23359 35.5271 6.02523C35.0724 5.81726 34.5655 5.79773 34.0989 5.9707L31.1656 7.05999C30.2 7.41874 29.7061 8.49632 30.0647 9.46195L30.1123 9.59007C29.4183 9.85351 28.6437 9.56577 27.4598 9.06991C25.6921 8.32984 23.2945 7.33609 20.2508 9.23976C17.7805 7.70218 15.8422 8.08148 14.1255 8.42327C13.2536 8.59655 12.423 8.75968 11.5653 8.67093C11.5412 8.44554 11.4794 8.22343 11.3727 8.01507C11.1447 7.56991 10.7583 7.24054 10.2848 7.0878L7.3071 6.12726C6.83343 5.97452 6.32741 6.01609 5.88241 6.24359C5.43741 6.47163 5.10803 6.85804 4.95546 7.33148L1.09038 19.3102C0.774207 20.2906 1.31452 21.3455 2.29499 21.6616L5.27264 22.6225C5.45769 22.6825 5.651 22.7131 5.84553 22.7133C6.13796 22.7133 6.42866 22.6436 6.69718 22.5062C6.86304 22.4212 7.00639 22.308 7.13694 22.1826C7.1553 22.2733 7.17991 22.3629 7.2021 22.4529L6.45663 23.8466C6.13694 24.4446 6.07499 25.1698 6.28702 25.8359C6.49343 26.4844 6.92874 27.0024 7.49968 27.2876C7.97882 27.5446 8.52804 27.6403 9.06585 27.5604C8.91718 28.0534 8.91999 28.5941 9.08116 29.1009C9.28757 29.7494 9.72288 30.2676 10.2938 30.5528C10.891 30.8722 11.5784 30.9388 12.2298 30.7418C12.4861 30.6645 12.7286 30.5475 12.9486 30.395C13.1576 31.0335 13.5896 31.5431 14.154 31.8251C14.7511 32.1445 15.4385 32.2112 16.0899 32.0141C16.233 31.9708 16.372 31.9151 16.5055 31.8479C16.7014 32.6342 17.2605 33.3345 17.9575 33.7073C18.2904 33.8852 18.6824 33.9999 19.0894 33.9999C19.8289 33.9999 20.6175 33.6209 21.188 32.5546L21.2992 32.3465L21.4253 32.4126L21.7228 32.5677C22.0872 32.7553 22.4433 32.838 22.7782 32.838C23.6136 32.838 24.3153 32.3231 24.6741 31.6394C24.9211 31.1689 25.008 30.6095 24.8882 30.0666C25.1896 30.0822 25.4944 30.0463 25.7923 29.9561C26.4612 29.7534 27.0102 29.3042 27.338 28.6913C27.6029 28.1962 27.6987 27.6404 27.6189 27.0923C28.1784 27.3245 28.7973 27.3548 29.3874 27.176C30.0622 26.9716 30.6159 26.5183 30.9466 25.9001C31.2168 25.3946 31.3127 24.8265 31.2269 24.2673C32.1388 24.6309 33.0187 24.4646 33.6297 23.7952C34.2491 23.1169 34.4573 22.0776 34.2257 21.1501L34.376 21.0962L34.3846 21.0931L34.4471 21.2612C34.7265 22.0131 35.4418 22.4788 36.2005 22.4788C36.4218 22.4788 36.6414 22.4392 36.8488 22.362L39.7819 21.2727C40.7477 20.914 41.2416 19.8366 40.883 18.8709ZM6.59554 21.0862C6.53132 21.2851 6.39249 21.4476 6.20436 21.5439C6.01593 21.6401 5.80303 21.6579 5.60452 21.5939L2.62671 20.6328C2.21358 20.4996 1.98585 20.0551 2.11905 19.642L5.98428 7.66335C6.04835 7.46468 6.18718 7.3021 6.37522 7.20585C6.48655 7.14841 6.60995 7.11831 6.73522 7.11804C6.81666 7.11809 6.89759 7.1309 6.97507 7.15601L9.95288 8.11671C10.1516 8.18077 10.3141 8.3196 10.4104 8.50765C10.5066 8.69577 10.5244 8.90866 10.4604 9.10749L7.37468 18.6714C7.36116 18.6975 7.34811 18.7242 7.33882 18.7531C7.31171 18.8367 7.29077 18.9213 7.26694 19.0055L6.59554 21.0862ZM12.7816 29.0001C12.5986 29.3426 12.2912 29.5937 11.916 29.7073C11.5411 29.821 11.1458 29.7826 10.7905 29.5928C10.4695 29.4325 10.2283 29.1413 10.1113 28.7732C9.98725 28.3837 10.0212 27.9638 10.2042 27.6218L10.9395 26.2473L11.8988 24.4537C12.0818 24.1115 12.3892 23.8605 12.7641 23.7468C13.1393 23.6328 13.5341 23.6713 13.8767 23.8544C14.219 24.0374 14.47 24.3448 14.5837 24.72C14.6973 25.0949 14.659 25.4901 14.4758 25.8326L14.2064 26.3365L14.2055 26.338L13.1111 28.3842L12.7816 29.0001ZM15.7762 30.9796C15.4011 31.0933 15.0062 31.0549 14.6507 30.8651C14.3298 30.7048 14.0887 30.4137 13.9715 30.0457C13.8479 29.6565 13.8813 29.2376 14.0636 28.8957L14.0644 28.8941L15.1589 26.848L15.1598 26.8462C15.343 26.5047 15.65 26.2544 16.0244 26.1409C16.3991 26.0266 16.7944 26.0652 17.1367 26.2485C17.8472 26.6286 18.1161 27.5159 17.7362 28.2264L17.189 29.2496L16.7039 30.1565L16.7033 30.1575L16.6418 30.2726C16.4588 30.6147 16.1512 30.8659 15.7762 30.9796ZM18.4673 32.7541C17.7587 32.3751 17.2517 31.4244 17.6573 30.6662L18.1423 29.7593L18.1429 29.758C18.332 29.4055 18.6683 29.1222 19.0658 28.981C19.4626 28.8399 19.8609 28.8587 20.1878 29.0336C20.9001 29.4144 21.015 29.7476 21.0392 29.9651C21.0762 30.2939 20.9369 30.7312 20.5884 31.3827L20.5878 31.3843L20.2346 32.0447C19.6363 33.1642 18.8708 32.9696 18.4673 32.7541ZM23.7169 31.1373C23.4619 31.6237 22.8996 31.9577 22.2176 31.6069L21.928 31.4557C21.8801 31.4304 21.8354 31.4069 21.7939 31.3853C22.0128 30.8984 22.1723 30.3694 22.1136 29.8448C22.0473 29.2534 21.7191 28.7601 21.1237 28.3441L23.2525 29.4873C23.9639 29.9868 23.9615 30.6712 23.7169 31.1373ZM32.8312 23.0665C32.4832 23.4481 32.0055 23.4805 31.4109 23.1622L29.8692 22.3376L29.866 22.3361C29.8502 22.3276 29.8337 22.3228 29.8176 22.3161L24.8462 19.6176C24.5844 19.4748 24.2559 19.5723 24.1134 19.8348C24.0796 19.8972 24.0583 19.9657 24.0509 20.0362C24.0435 20.1068 24.0501 20.1782 24.0703 20.2462C24.0904 20.3143 24.1238 20.3777 24.1685 20.4329C24.2132 20.488 24.2683 20.5338 24.3307 20.5676L29.4072 23.3233C29.7432 23.5203 29.9927 23.8302 30.1076 24.2087C30.2283 24.607 30.1876 25.0266 29.993 25.3904C29.7986 25.7541 29.472 26.0209 29.0737 26.1416C28.6746 26.2621 28.2553 26.2216 27.8919 26.0272L26.3591 25.2073C26.3321 25.1851 26.3031 25.1656 26.2723 25.149L22.5731 23.1711C22.5105 23.1376 22.442 23.1168 22.3713 23.1098C22.3007 23.1028 22.2294 23.1098 22.1614 23.1304C22.0935 23.151 22.0303 23.1848 21.9754 23.2299C21.9206 23.2749 21.8751 23.3303 21.8417 23.393C21.8082 23.4555 21.7874 23.5241 21.7804 23.5948C21.7735 23.6654 21.7805 23.7367 21.8011 23.8046C21.8217 23.8726 21.8555 23.9358 21.9005 23.9906C21.9456 24.0455 22.001 24.0909 22.0636 24.1244L25.6698 26.0526C25.6965 26.0744 25.7255 26.0944 25.7572 26.1112C26.1156 26.3029 26.3785 26.6245 26.4974 27.0173C26.6163 27.4098 26.5762 27.8233 26.3846 28.1816C26.193 28.54 25.8712 28.8026 25.4786 28.9218C25.0862 29.0405 24.6726 29.0006 24.3143 28.809L23.5318 28.3905C23.4932 28.3705 23.4524 28.3552 23.4101 28.345L20.2519 26.6491C19.9888 26.5069 19.661 26.6064 19.5201 26.8696C19.4865 26.9321 19.4655 27.0007 19.4584 27.0713C19.4513 27.1419 19.4582 27.2132 19.4787 27.2812C19.4991 27.3491 19.5328 27.4124 19.5777 27.4673C19.6227 27.5223 19.678 27.5678 19.7405 27.6014L20.4043 27.9578C19.9537 27.7917 19.4601 27.7603 18.9662 27.8833C19.1057 26.8599 18.609 25.8098 17.6465 25.295C17.0551 24.9787 16.3745 24.9098 15.7286 25.1008C15.7237 24.8653 15.6866 24.6317 15.6181 24.4063C15.4207 23.7548 14.9831 23.2202 14.3862 22.901C13.7862 22.5804 13.1141 22.5251 12.5058 22.6948C12.4955 21.7765 11.9126 21.0128 11.2184 20.5255C11.1945 20.507 11.1691 20.4906 11.1424 20.4764C10.1061 19.9223 8.85358 20.1618 8.08593 20.9817C8.0735 20.4196 8.15038 19.8551 8.30655 19.3027L11.3916 9.74077C12.4345 9.86148 13.3994 9.67015 14.3361 9.48343C15.8933 9.17374 17.3722 8.87937 19.2832 9.92101C18.8669 10.2525 18.4481 10.6308 18.0318 11.0513C17.7023 11.3846 17.3633 11.7173 17.0327 12.0419C15.8274 13.2258 14.7865 14.2482 14.4888 14.9738C14.4534 15.06 14.4409 15.1539 14.4526 15.2464C14.4642 15.3388 14.4995 15.4267 14.5551 15.5015C16.7065 18.3948 19.3138 17.413 21.408 16.6244C22.978 16.033 24.3339 15.5221 25.414 16.3769C25.4344 16.393 25.4559 16.4076 25.4784 16.4207C25.9943 16.7196 26.7048 17.0705 27.5276 17.4768C29.5167 18.4593 32.241 19.8048 32.945 20.8748C33.418 21.5934 33.268 22.588 32.8312 23.0665ZM33.7641 20.1676C32.8205 18.8878 30.1604 17.5714 28.0065 16.5078C27.2187 16.1186 26.5358 15.7815 26.0526 15.504C24.501 14.3048 22.7353 14.9696 21.0272 15.6129C19.0026 16.3749 17.2423 17.0376 15.6342 15.1244C16.0119 14.56 16.9139 13.6742 17.7903 12.8135C18.1246 12.4851 18.467 12.1487 18.8003 11.8119C19.3778 11.2287 19.9557 10.738 20.5191 10.3503C23.2421 8.4778 25.2607 9.32148 27.0422 10.067C27.8751 10.4158 28.7254 10.7717 29.5664 10.7717C29.8753 10.7717 30.1826 10.7153 30.4877 10.6013L34.0081 20.0798L33.7641 20.1676ZM39.4058 20.2593L36.4726 21.3486C36.0644 21.4992 35.6113 21.2916 35.4604 20.8848L31.0781 9.0853C31.0055 8.88968 31.0139 8.67624 31.1019 8.48405C31.19 8.29194 31.3462 8.14609 31.5419 8.07335L34.4751 6.98405C34.5619 6.95167 34.6539 6.93506 34.7465 6.93499C34.8588 6.93499 34.9709 6.95945 35.0766 7.0078C35.2686 7.09577 35.4144 7.25218 35.4871 7.44804L39.8695 19.2472C40.0207 19.6542 39.8126 20.1081 39.4058 20.2593Z" stroke="black"/>
</svg>
