<svg width="24" height="24" viewBox="0 0 24 24" fill="none" xmlns="http://www.w3.org/2000/svg">
  <path d="M17.94 17.94C16.2306 19.243 14.1491 19.9649 12 20C5 20 1 12 1 12C2.24389 9.68192 3.96914 7.65661 6.06 6.06M9.9 4.24C10.5883 4.0789 11.2931 3.99836 12 4C19 4 23 12 23 12C22.393 13.1356 21.6691 14.2048 20.84 15.19M14.12 14.12C13.8454 14.4148 13.5141 14.6512 13.1462 14.8151C12.7782 14.9791 12.3809 15.0673 11.9781 15.0744C11.5753 15.0815 11.1747 15.0074 10.8019 14.8565C10.4291 14.7056 10.0917 14.4811 9.80385 14.1962C9.51597 13.9113 9.29326 13.5768 9.14676 13.2059C9.00026 12.8351 8.93289 12.4359 8.94879 12.0336C8.96469 11.6313 9.06381 11.2347 9.24008 10.8685C9.41635 10.5023 9.66567 10.1747 9.97 9.91003M1 1L23 23" stroke="currentColor" stroke-width="2" stroke-linecap="round" stroke-linejoin="round"/>
</svg> 