<svg width="41" height="40" viewBox="0 0 41 40" fill="none" xmlns="http://www.w3.org/2000/svg">
<path d="M34.9376 17.5751C35.3438 17.5751 35.3438 18.2001 34.9376 18.2001H32.4376C32.0313 18.2001 32.0313 17.5751 32.4376 17.5751H34.9376ZM33.1688 14.2501C33.5563 14.1438 33.7188 14.7501 33.3313 14.8563L32.1251 15.1751C31.7313 15.2813 31.5688 14.6813 31.9626 14.5751L33.1688 14.2501ZM33.3313 20.9188C33.7188 21.0251 33.5563 21.6313 33.1688 21.5251L31.9626 21.2001C31.5688 21.1001 31.7313 20.4938 32.1251 20.6001L33.3313 20.9188ZM32.8876 10.5501C33.2376 10.3438 33.5501 10.8876 33.2001 11.0876L31.0376 12.3376C30.6876 12.5438 30.3751 12.0001 30.7251 11.8001L32.8876 10.5501ZM33.2001 24.6876C33.5501 24.8876 33.2376 25.4313 32.8876 25.2251L30.7251 23.9751C30.3751 23.7751 30.6876 23.2376 31.0376 23.4376L33.2001 24.6876ZM29.6938 8.55632C29.9751 8.26882 30.4188 8.71257 30.1313 8.99382L29.2501 9.88132C28.9626 10.1626 28.5251 9.72507 28.8063 9.43757L29.6938 8.55632ZM30.1313 26.7813C30.4188 27.0626 29.9751 27.5063 29.6938 27.2188L28.8063 26.3376C28.5251 26.0501 28.9626 25.6126 29.2501 25.8938L30.1313 26.7813ZM27.6001 5.48757C27.8001 5.13757 28.3438 5.45007 28.1376 5.80007L26.8876 7.96257C26.6876 8.31257 26.1438 8.00007 26.3501 7.65007L27.6001 5.48757ZM25.0251 9.43132C30.5001 12.1751 31.9313 19.5938 27.8626 24.1688C26.6313 25.5126 25.1501 26.5876 23.8001 27.8126H17.8001C16.4501 26.5876 14.9688 25.5126 13.7376 24.1688C11.8063 21.9938 10.9751 18.9813 11.5126 16.1251C12.6626 10.0626 19.5126 6.67507 25.0251 9.43132ZM25.1063 22.0813C26.1965 20.957 26.8082 19.4537 26.8126 17.8876C26.8126 15.0626 24.7626 12.5501 21.9938 11.9938C19.2063 11.4313 16.3313 12.9626 15.2438 15.5876C14.1501 18.2188 15.1126 21.3376 17.4876 22.9063C19.8688 24.4813 23.1188 24.1251 25.1063 22.0813ZM23.8313 5.35632C23.9376 4.96882 24.5438 5.13132 24.4376 5.51882L24.1126 6.72507C24.0063 7.11882 23.4063 6.95632 23.5126 6.56257L23.8313 5.35632ZM24.2376 28.4376C25.4438 28.4376 25.4438 30.3126 24.2376 30.3126H17.3626C16.1563 30.3126 16.1563 28.4376 17.3626 28.4376H24.2376Z" fill="black"/>
<path d="M23.9251 30.9375C25.1313 30.9375 25.1313 32.8125 23.9251 32.8125H17.6751C16.4688 32.8125 16.4688 30.9375 17.6751 30.9375H23.9251ZM23.6126 33.4375V34.375C23.6126 34.7894 23.448 35.1868 23.155 35.4799C22.8619 35.7729 22.4645 35.9375 22.0501 35.9375H19.5501C19.1357 35.9375 18.7383 35.7729 18.4452 35.4799C18.1522 35.1868 17.9876 34.7894 17.9876 34.375V33.4375H23.6126ZM21.1126 3.75V6.25C21.1126 6.65625 20.4876 6.65625 20.4876 6.25V3.75C20.4876 3.34375 21.1126 3.34375 21.1126 3.75ZM18.0876 6.5625C18.1938 6.95625 17.5876 7.11875 17.4876 6.725L17.1626 5.51875C17.0563 5.13125 17.6626 4.96875 17.7688 5.35625L18.0876 6.5625ZM15.2501 7.65C15.4563 8 14.9126 8.3125 14.7126 7.9625L13.4626 5.8C13.2563 5.45 13.8001 5.1375 14.0001 5.4875L15.2501 7.65ZM12.7938 9.4375C13.0751 9.725 12.6376 10.1625 12.3501 9.88125L11.4688 8.99375C11.1813 8.7125 11.6251 8.26875 11.9063 8.55625L12.7938 9.4375ZM12.3501 25.8937C12.6376 25.6125 13.0751 26.05 12.7938 26.3375L11.9063 27.2188C11.6251 27.5063 11.1813 27.0625 11.4688 26.7812L12.3501 25.8937ZM10.8751 11.8C11.2251 12 10.9126 12.5437 10.5626 12.3375L8.4001 11.0875C8.0501 10.8875 8.3626 10.3437 8.7126 10.55L10.8751 11.8ZM10.5626 23.4375C10.9126 23.2375 11.2251 23.775 10.8751 23.975L8.7126 25.225C8.3626 25.4312 8.0501 24.8875 8.4001 24.6875L10.5626 23.4375ZM9.6376 14.575C10.0313 14.6812 9.86885 15.2812 9.4751 15.175L8.26885 14.8562C7.88135 14.75 8.04385 14.1437 8.43135 14.25L9.6376 14.575ZM9.4751 20.6C9.86885 20.4937 10.0313 21.1 9.6376 21.2L8.43135 21.525C8.04385 21.6312 7.88135 21.025 8.26885 20.9188L9.4751 20.6ZM9.1626 17.575C9.56885 17.575 9.56885 18.2 9.1626 18.2H6.6626C6.25635 18.2 6.25635 17.575 6.6626 17.575H9.1626Z" fill="black"/>
</svg>
