<svg width="40" height="40" viewBox="0 0 40 40" fill="none" xmlns="http://www.w3.org/2000/svg">
<path d="M24.225 9.43127C29.7 12.175 31.1313 19.5938 27.0625 24.1688C25.8313 25.5125 24.35 26.5875 23 27.8125H17C15.65 26.5875 14.1688 25.5125 12.9375 24.1688C11.0063 21.9938 10.175 18.9813 10.7125 16.125C11.8625 10.0625 18.7125 6.67502 24.225 9.43127ZM23.4375 28.4375C24.6438 28.4375 24.6438 30.3125 23.4375 30.3125H16.5625C15.3563 30.3125 15.3563 28.4375 16.5625 28.4375H23.4375Z" fill="white"/>
<path d="M23.125 30.9375C24.3313 30.9375 24.3313 32.8125 23.125 32.8125H16.875C15.6688 32.8125 15.6688 30.9375 16.875 30.9375H23.125ZM22.8125 33.4375V34.375C22.8125 34.7894 22.6479 35.1868 22.3549 35.4799C22.0619 35.7729 21.6644 35.9375 21.25 35.9375H18.75C18.3356 35.9375 17.9382 35.7729 17.6452 35.4799C17.3521 35.1868 17.1875 34.7894 17.1875 34.375V33.4375H22.8125Z" fill="white"/>
</svg>
