<svg width="30" height="31" viewBox="0 0 30 31" fill="none" xmlns="http://www.w3.org/2000/svg">
<path d="M25.3895 29.894L24.7783 0.5H5.2441C4.73783 0.5 4.32739 0.906997 4.32739 1.40902V29.288L25.3895 29.894Z" fill="#5D5360"/>
<path d="M25.0839 0.5H24.7783V28.8335C24.7783 28.954 24.73 29.0696 24.6441 29.1549C24.5581 29.2401 24.4415 29.288 24.32 29.288H4.32739V29.591C4.32739 30.093 4.73783 30.5 5.2441 30.5H25.0839C25.5902 30.5 26.0006 30.093 26.0006 29.591V1.40902C26.0006 0.906997 25.5902 0.5 25.0839 0.5Z" fill="#4B3F4E"/>
<path d="M16.0756 20.0645C20.5445 20.0645 24.1671 16.4722 24.1671 12.0409C24.1671 7.60961 20.5445 4.01733 16.0756 4.01733C11.6068 4.01733 7.98413 7.60961 7.98413 12.0409C7.98413 16.4722 11.6068 20.0645 16.0756 20.0645Z" fill="#4B3F4E"/>
<path d="M19.8715 27.4991H17.8649C17.6118 27.4991 17.4065 27.2957 17.4065 27.0446C17.4065 26.7935 17.6118 26.5901 17.8649 26.5901H19.8715C20.1246 26.5901 20.3298 26.7935 20.3298 27.0446C20.3298 27.2957 20.1246 27.4991 19.8715 27.4991ZM16.0315 27.4991H10.4469C10.1937 27.4991 9.98851 27.2957 9.98851 27.0446C9.98851 26.7935 10.1937 26.5901 10.4469 26.5901H16.0315C16.2846 26.5901 16.4898 26.7935 16.4898 27.0446C16.4898 27.2957 16.2846 27.4991 16.0315 27.4991ZM1.50104 26.4444C1.37948 26.4444 1.2629 26.3965 1.17694 26.3113C1.09098 26.2261 1.04269 26.1104 1.04269 25.9899V25.0809H0.584332C0.331198 25.0809 0.125977 24.8775 0.125977 24.6264C0.125977 24.3753 0.331198 24.1719 0.584332 24.1719H1.04269V23.2629C1.04269 23.0118 1.24791 22.8083 1.50104 22.8083C1.75418 22.8083 1.9594 23.0118 1.9594 23.2629V24.1719H2.41776C2.67089 24.1719 2.87611 24.3753 2.87611 24.6264C2.87611 24.8775 2.67089 25.0809 2.41776 25.0809H1.9594V25.9899C1.9594 26.0496 1.94754 26.1087 1.92451 26.1638C1.90148 26.219 1.86771 26.2691 1.82515 26.3113C1.78259 26.3535 1.73206 26.387 1.67645 26.4098C1.62084 26.4327 1.56124 26.4444 1.50104 26.4444ZM19.8715 25.6811H10.4468C10.1937 25.6811 9.98845 25.4776 9.98845 25.2266C9.98845 24.9755 10.1937 24.7721 10.4468 24.7721H19.8715C20.1246 24.7721 20.3298 24.9755 20.3298 25.2266C20.3298 25.4776 20.1246 25.6811 19.8715 25.6811Z" fill="#FFE07D"/>
<path d="M22.1349 23.7511C22.4049 23.7511 22.6238 23.5341 22.6238 23.2663C22.6238 22.9986 22.4049 22.7815 22.1349 22.7815C21.8649 22.7815 21.646 22.9986 21.646 23.2663C21.646 23.5341 21.8649 23.7511 22.1349 23.7511Z" fill="#FFE07D"/>
<path d="M18.1772 22.9542H12.1407C11.8876 22.9542 11.6824 22.7508 11.6824 22.4997C11.6824 22.2487 11.8876 22.0452 12.1407 22.0452H18.1772C18.4303 22.0452 18.6356 22.2487 18.6356 22.4997C18.6356 22.7508 18.4303 22.9542 18.1772 22.9542ZM23.2125 22.0081C23.091 22.0081 22.9744 21.9602 22.8884 21.875C22.8025 21.7898 22.7542 21.6742 22.7542 21.5536V20.6446H22.2958C22.0427 20.6446 21.8375 20.4412 21.8375 20.1901C21.8375 19.939 22.0427 19.7356 22.2958 19.7356H22.7542V18.8266C22.7542 18.5755 22.9594 18.3721 23.2125 18.3721C23.4657 18.3721 23.6709 18.5755 23.6709 18.8266V19.7356H24.1292C24.3824 19.7356 24.5876 19.939 24.5876 20.1901C24.5876 20.4412 24.3824 20.6446 24.1292 20.6446H23.6709V21.5536C23.6709 21.6742 23.6226 21.7898 23.5366 21.875C23.4507 21.9602 23.3341 22.0081 23.2125 22.0081Z" fill="#FFE07D"/>
<path d="M2.57851 20.7211C2.84853 20.7211 3.06743 20.504 3.06743 20.2363C3.06743 19.9685 2.84853 19.7515 2.57851 19.7515C2.30849 19.7515 2.0896 19.9685 2.0896 20.2363C2.0896 20.504 2.30849 20.7211 2.57851 20.7211Z" fill="#FFE07D"/>
<path d="M28.7509 17.766C28.6294 17.766 28.5128 17.7181 28.4268 17.6328C28.3409 17.5476 28.2926 17.432 28.2926 17.3115V16.4024H27.8342C27.5811 16.4024 27.3758 16.199 27.3758 15.9479C27.3758 15.6969 27.5811 15.4934 27.8342 15.4934H28.2926V14.5844C28.2926 14.3333 28.4978 14.1299 28.7509 14.1299C29.0041 14.1299 29.2093 14.3333 29.2093 14.5844V15.4934H29.6676C29.9208 15.4934 30.126 15.6969 30.126 15.9479C30.126 16.199 29.9208 16.4024 29.6676 16.4024H29.2093V17.3115C29.2093 17.432 29.161 17.5476 29.075 17.6328C28.9891 17.7181 28.8725 17.766 28.7509 17.766ZM7.25959 5.49959C7.13803 5.49959 7.02144 5.4517 6.93548 5.36647C6.84952 5.28123 6.80123 5.16562 6.80123 5.04508V4.13606H6.34288C6.08974 4.13606 5.88452 3.93263 5.88452 3.68156C5.88452 3.43049 6.08974 3.22705 6.34288 3.22705H6.80123V2.31803C6.80123 2.06696 7.00645 1.86353 7.25959 1.86353C7.51272 1.86353 7.71794 2.06696 7.71794 2.31803V3.22705H8.1763C8.42944 3.22705 8.63466 3.43049 8.63466 3.68156C8.63466 3.93263 8.42944 4.13606 8.1763 4.13606H7.71794V5.04508C7.71794 5.16562 7.66965 5.28123 7.5837 5.36647C7.49774 5.4517 7.38115 5.49959 7.25959 5.49959ZM22.545 7.85067L18.0419 3.63314C17.1463 3.29438 16.1747 3.10833 15.1592 3.10833C10.6904 3.10833 7.06769 6.70058 7.06769 11.1319C7.06769 12.3009 7.32003 13.4114 7.77331 14.4131L12.2764 18.6306C12.9328 18.801 14.0822 18.7918 14.7925 18.7918C19.2613 18.7918 22.884 15.1996 22.884 10.7682C22.884 9.91098 22.7961 8.62521 22.545 7.85067ZM15.1591 12.9851C14.9316 12.9853 14.706 12.9441 14.4934 12.8636H13.4536V11.8895C13.3457 11.6513 13.29 11.393 13.2902 11.1318C13.2902 10.1083 14.127 9.27861 15.1591 9.27861C15.3867 9.27848 15.6123 9.31966 15.8249 9.40011H16.8646V10.3742C16.9726 10.6125 17.0283 10.8707 17.0281 11.1319C17.0281 12.1554 16.1914 12.9851 15.1591 12.9851Z" fill="#FFE07D"/>
<path d="M22.1912 8.00791C22.4483 8.80209 22.579 9.63121 22.5783 10.4653C22.5783 14.8966 18.9557 18.4889 14.4868 18.4889C13.7932 18.4893 13.1024 18.4014 12.4314 18.2274H12.2764V18.6308C13.1719 18.9695 14.1435 19.1556 15.1591 19.1556C19.6279 19.1556 23.2506 15.5633 23.2506 11.132C23.2506 9.96302 22.9983 8.8525 22.545 7.85083H22.1912V8.00791H22.1912Z" fill="#EAB12F"/>
<path d="M14.4934 12.8636C14.0305 12.6879 13.6567 12.3377 13.4536 11.8895L7.77319 14.413C8.11145 15.1596 8.56282 15.8505 9.11165 16.4619C10.1574 17.4385 11.4655 18.2272 12.4314 18.2272L14.4934 12.8636ZM15.8249 9.40003C16.2877 9.57568 16.6615 9.92591 16.8647 10.3741L22.1912 8.00779C22.1912 7.22955 21.595 6.2692 20.5343 5.13511C19.8021 4.48878 18.9576 3.97982 18.0418 3.63306L15.8249 9.40003Z" fill="#F5FCFF"/>
<path d="M22.5449 7.85073C22.0733 6.80857 21.3838 5.88465 20.5342 5.13525C21.2728 5.9587 21.8429 6.93389 22.191 8.00793L22.5449 7.85073ZM9.11157 16.462C9.96796 17.4167 11.0506 18.1671 12.2763 18.6307L12.4314 18.2273C11.181 17.9027 10.0488 17.2887 9.11157 16.462Z" fill="#FFE07D"/>
</svg>
