<svg width="30" height="31" viewBox="0 0 30 31" fill="none" xmlns="http://www.w3.org/2000/svg">
<path d="M25.2635 29.894L24.6523 0.5H5.11813C4.61186 0.5 4.20142 0.906997 4.20142 1.40902V29.288L25.2635 29.894Z" fill="#607882"/>
<path d="M24.9579 0.5H24.6523V28.8335C24.6523 28.954 24.604 29.0696 24.5181 29.1549C24.4321 29.2401 24.3155 29.288 24.194 29.288H4.20142V29.591C4.20142 30.093 4.61186 30.5 5.11813 30.5H24.9579C25.4642 30.5 25.8746 30.093 25.8746 29.591V1.40902C25.8746 0.906997 25.4642 0.5 24.9579 0.5Z" fill="#495959"/>
<path d="M15.9497 20.0645C20.4185 20.0645 24.0412 16.4722 24.0412 12.0409C24.0412 7.60961 20.4185 4.01733 15.9497 4.01733C11.4808 4.01733 7.85815 7.60961 7.85815 12.0409C7.85815 16.4722 11.4808 20.0645 15.9497 20.0645Z" fill="#495959"/>
<path d="M19.7455 27.4991H17.7389C17.4858 27.4991 17.2806 27.2957 17.2806 27.0446C17.2806 26.7935 17.4858 26.5901 17.7389 26.5901H19.7455C19.9986 26.5901 20.2038 26.7935 20.2038 27.0446C20.2038 27.2957 19.9986 27.4991 19.7455 27.4991ZM15.9055 27.4991H10.3209C10.0678 27.4991 9.86253 27.2957 9.86253 27.0446C9.86253 26.7935 10.0678 26.5901 10.3209 26.5901H15.9055C16.1586 26.5901 16.3639 26.7935 16.3639 27.0446C16.3639 27.2957 16.1586 27.4991 15.9055 27.4991ZM1.37507 26.4444C1.2535 26.4444 1.13692 26.3965 1.05096 26.3113C0.965002 26.2261 0.916712 26.1104 0.916712 25.9899V25.0809H0.458356C0.205221 25.0809 0 24.8775 0 24.6264C0 24.3753 0.205221 24.1719 0.458356 24.1719H0.916712V23.2629C0.916712 23.0118 1.12193 22.8083 1.37507 22.8083C1.6282 22.8083 1.83342 23.0118 1.83342 23.2629V24.1719H2.29178C2.54491 24.1719 2.75013 24.3753 2.75013 24.6264C2.75013 24.8775 2.54491 25.0809 2.29178 25.0809H1.83342V25.9899C1.83342 26.0496 1.82157 26.1087 1.79853 26.1638C1.7755 26.219 1.74174 26.2691 1.69917 26.3113C1.65661 26.3535 1.60608 26.387 1.55047 26.4098C1.49486 26.4327 1.43526 26.4444 1.37507 26.4444ZM19.7455 25.6811H10.3208C10.0677 25.6811 9.86247 25.4776 9.86247 25.2266C9.86247 24.9755 10.0677 24.7721 10.3208 24.7721H19.7455C19.9986 24.7721 20.2038 24.9755 20.2038 25.2266C20.2038 25.4776 19.9986 25.6811 19.7455 25.6811Z" fill="#D3EFFD"/>
<path d="M22.0089 23.7511C22.279 23.7511 22.4978 23.5341 22.4978 23.2663C22.4978 22.9986 22.279 22.7815 22.0089 22.7815C21.7389 22.7815 21.52 22.9986 21.52 23.2663C21.52 23.5341 21.7389 23.7511 22.0089 23.7511Z" fill="#D3EFFD"/>
<path d="M18.0512 22.9542H12.0148C11.7616 22.9542 11.5564 22.7508 11.5564 22.4997C11.5564 22.2487 11.7616 22.0452 12.0148 22.0452H18.0512C18.3044 22.0452 18.5096 22.2487 18.5096 22.4997C18.5096 22.7508 18.3044 22.9542 18.0512 22.9542ZM23.0866 22.0081C22.965 22.0081 22.8484 21.9602 22.7624 21.875C22.6765 21.7898 22.6282 21.6742 22.6282 21.5536V20.6446H22.1698C21.9167 20.6446 21.7115 20.4412 21.7115 20.1901C21.7115 19.939 21.9167 19.7356 22.1698 19.7356H22.6282V18.8266C22.6282 18.5755 22.8334 18.3721 23.0866 18.3721C23.3397 18.3721 23.5449 18.5755 23.5449 18.8266V19.7356H24.0033C24.2564 19.7356 24.4616 19.939 24.4616 20.1901C24.4616 20.4412 24.2564 20.6446 24.0033 20.6446H23.5449V21.5536C23.5449 21.6742 23.4966 21.7898 23.4107 21.875C23.3247 21.9602 23.2081 22.0081 23.0866 22.0081Z" fill="#D3EFFD"/>
<path d="M2.45254 20.7211C2.72256 20.7211 2.94145 20.504 2.94145 20.2363C2.94145 19.9685 2.72256 19.7515 2.45254 19.7515C2.18252 19.7515 1.96362 19.9685 1.96362 20.2363C1.96362 20.504 2.18252 20.7211 2.45254 20.7211Z" fill="#D3EFFD"/>
<path d="M28.6249 17.766C28.5034 17.766 28.3868 17.7181 28.3008 17.6328C28.2149 17.5476 28.1666 17.432 28.1666 17.3115V16.4024H27.7082C27.4551 16.4024 27.2499 16.199 27.2499 15.9479C27.2499 15.6969 27.4551 15.4934 27.7082 15.4934H28.1666V14.5844C28.1666 14.3333 28.3718 14.1299 28.6249 14.1299C28.8781 14.1299 29.0833 14.3333 29.0833 14.5844V15.4934H29.5417C29.7948 15.4934 30 15.6969 30 15.9479C30 16.199 29.7948 16.4024 29.5417 16.4024H29.0833V17.3115C29.0833 17.432 29.035 17.5476 28.949 17.6328C28.8631 17.7181 28.7465 17.766 28.6249 17.766ZM7.13361 5.49959C7.01205 5.49959 6.89546 5.4517 6.80951 5.36647C6.72355 5.28123 6.67526 5.16562 6.67526 5.04508V4.13606H6.2169C5.96377 4.13606 5.75854 3.93263 5.75854 3.68156C5.75854 3.43049 5.96377 3.22705 6.2169 3.22705H6.67526V2.31803C6.67526 2.06696 6.88048 1.86353 7.13361 1.86353C7.38675 1.86353 7.59197 2.06696 7.59197 2.31803V3.22705H8.05032C8.30346 3.22705 8.50868 3.43049 8.50868 3.68156C8.50868 3.93263 8.30346 4.13606 8.05032 4.13606H7.59197V5.04508C7.59197 5.16562 7.54368 5.28123 7.45772 5.36647C7.37176 5.4517 7.25518 5.49959 7.13361 5.49959ZM22.419 7.85067L17.9159 3.63314C17.0203 3.29438 16.0488 3.10833 15.0332 3.10833C10.5644 3.10833 6.94171 6.70058 6.94171 11.1319C6.94171 12.3009 7.19405 13.4114 7.64734 14.4131L12.1505 18.6306C12.8068 18.801 13.9562 18.7918 14.6665 18.7918C19.1353 18.7918 22.758 15.1996 22.758 10.7682C22.758 9.91098 22.6701 8.62521 22.419 7.85067ZM15.0332 12.9851C14.8056 12.9853 14.58 12.9441 14.3674 12.8636H13.3277V11.8895C13.2197 11.6513 13.164 11.393 13.1642 11.1318C13.1642 10.1083 14.001 9.27861 15.0332 9.27861C15.2607 9.27848 15.4863 9.31966 15.6989 9.40011H16.7387V10.3742C16.8466 10.6125 16.9023 10.8707 16.9021 11.1319C16.9022 12.1554 16.0654 12.9851 15.0332 12.9851Z" fill="#D3EFFD"/>
<path d="M22.0652 8.00791C22.3224 8.80209 22.453 9.63121 22.4523 10.4653C22.4523 14.8966 18.8297 18.4889 14.3608 18.4889C13.6672 18.4893 12.9765 18.4014 12.3054 18.2274H12.1504V18.6308C13.046 18.9695 14.0175 19.1556 15.0331 19.1556C19.5019 19.1556 23.1247 15.5633 23.1247 11.132C23.1247 9.96302 22.8723 8.8525 22.419 7.85083H22.0652V8.00791H22.0652Z" fill="#B2E5FB"/>
<path d="M14.3674 12.8636C13.9046 12.6879 13.5307 12.3377 13.3276 11.8895L7.64722 14.413C7.98547 15.1596 8.43684 15.8505 8.98568 16.4619C10.0315 17.4385 11.3395 18.2272 12.3055 18.2272L14.3674 12.8636ZM15.6989 9.40003C16.1617 9.57568 16.5356 9.92591 16.7387 10.3741L22.0652 8.00779C22.0652 7.22955 21.469 6.2692 20.4083 5.13511C19.6762 4.48878 18.8316 3.97982 17.9159 3.63306L15.6989 9.40003Z" fill="#F5FCFF"/>
<path d="M22.4189 7.85073C21.9473 6.80857 21.2579 5.88465 20.4082 5.13525C21.1468 5.9587 21.7169 6.93389 22.0651 8.00793L22.4189 7.85073ZM8.9856 16.462C9.84199 17.4167 10.9246 18.1671 12.1503 18.6307L12.3054 18.2273C11.055 17.9027 9.92284 17.2887 8.9856 16.462Z" fill="#D3EFFD"/>
</svg>
