<svg width="30" height="31" viewBox="0 0 30 31" fill="none" xmlns="http://www.w3.org/2000/svg">
<path d="M21.0821 25.6543L15 23.8965L8.91791 25.6543C8.86523 25.7598 8.84766 25.8652 8.84766 25.9883V29.6211H21.1523V25.9883C21.1523 25.8652 21.1348 25.7598 21.0821 25.6543Z" fill="#646D73"/>
<path d="M21.1523 29.6211V25.9883C21.1523 25.8652 21.1348 25.7598 21.0821 25.6543L15 23.8965V29.6211H21.1523Z" fill="#474F54"/>
<path d="M29.1211 2.25781H24.6302C24.6379 1.96092 24.668 1.68125 24.668 1.37891C24.668 0.88666 24.2813 0.5 23.7891 0.5H6.21094C5.71869 0.5 5.33203 0.88666 5.33203 1.37891C5.33203 1.68125 5.36209 1.96092 5.36971 2.25781H0.878906C0.393105 2.25781 0 2.65092 0 3.13672V5.36316C0 10.2706 3.93117 14.2572 8.77576 14.5138C9.78504 15.9034 10.9829 16.9347 12.3457 17.5156C12.1348 21.7871 9.69141 24.7578 9.11139 25.3731C9.02344 25.4434 8.95312 25.5488 8.91797 25.6543H21.0821C21.0469 25.5488 20.9766 25.4434 20.8887 25.3731C20.291 24.7578 17.8652 21.8047 17.6543 17.5156C19.0174 16.9346 20.2225 15.9031 21.2326 14.5129C26.073 14.2521 30 10.2679 30 5.36316V3.13672C30 2.65092 29.6069 2.25781 29.1211 2.25781ZM1.75781 5.36316V4.01562H5.44512C5.67322 6.92059 6.30316 9.99723 7.62715 12.6118C4.3084 11.8644 1.75781 8.90486 1.75781 5.36316ZM28.2422 5.36316C28.2422 8.90305 25.6939 11.8612 22.3776 12.6103C23.6911 9.99576 24.3246 6.94889 24.5549 4.01562H28.2422V5.36316Z" fill="#FED843"/>
<path d="M29.1211 2.25781H24.6302C24.6379 1.96092 24.668 1.68125 24.668 1.37891C24.668 0.88666 24.2813 0.5 23.7891 0.5H15V25.6543H21.0821C21.0469 25.5488 20.9766 25.4434 20.8887 25.3731C20.291 24.7578 17.8652 21.8047 17.6543 17.5156C19.0174 16.9346 20.2225 15.9031 21.2326 14.5129C26.073 14.2521 30 10.2679 30 5.36316V3.13672C30 2.65092 29.6069 2.25781 29.1211 2.25781ZM28.2422 5.36316C28.2422 8.90305 25.6939 11.8612 22.3776 12.6103C23.6912 9.99576 24.3247 6.94889 24.5549 4.01562H28.2422V5.36316Z" fill="#FABE2C"/>
<path d="M16.4025 11.6795L15 10.9507L13.5975 11.6795C13.304 11.8305 12.9452 11.8056 12.6757 11.6108C12.5437 11.5149 12.4409 11.3842 12.3791 11.2332C12.3172 11.0821 12.2987 10.9169 12.3255 10.7559L12.583 9.19462L11.4587 8.08485C11.2139 7.84626 11.1391 7.49253 11.239 7.18708C11.2896 7.0319 11.3824 6.89385 11.507 6.78836C11.6316 6.68288 11.7831 6.6141 11.9445 6.58972L13.5066 6.35452L14.2138 4.94089C14.5125 4.34522 15.4875 4.34522 15.7862 4.94089L16.4935 6.35452L18.0556 6.58972C18.217 6.61413 18.3684 6.68291 18.493 6.7884C18.6176 6.89388 18.7104 7.03191 18.7611 7.18708C18.8118 7.34233 18.8181 7.50867 18.7793 7.66731C18.7405 7.82596 18.6581 7.97058 18.5414 8.08485L17.417 9.19462L17.6745 10.7559C17.7014 10.9169 17.6829 11.0821 17.621 11.2332C17.5592 11.3842 17.4564 11.5149 17.3243 11.6108C17.0566 11.8048 16.6985 11.8334 16.4025 11.6795Z" fill="#FABE2C"/>
<path d="M16.4025 11.6792C16.6985 11.8332 17.0566 11.8046 17.3243 11.6106C17.4564 11.5147 17.5591 11.384 17.621 11.2329C17.6828 11.0819 17.7014 10.9167 17.6745 10.7557L17.417 9.1944L18.5413 8.08464C18.658 7.97037 18.7405 7.82574 18.7793 7.6671C18.8181 7.50845 18.8118 7.34211 18.7611 7.18687C18.7104 7.03168 18.6176 6.89364 18.493 6.78815C18.3684 6.68266 18.217 6.61389 18.0555 6.5895L16.4934 6.35431L15.7862 4.94067C15.6369 4.64284 15.3185 4.4939 15 4.4939V10.9505L16.4025 11.6792Z" fill="#FF9100"/>
<path d="M22.0312 30.5H7.96875C7.48295 30.5 7.08984 30.1069 7.08984 29.6211C7.08984 29.1353 7.48295 28.7422 7.96875 28.7422H22.0312C22.5171 28.7422 22.9102 29.1353 22.9102 29.6211C22.9102 30.1069 22.5171 30.5 22.0312 30.5Z" fill="#474F54"/>
<path d="M22.0312 28.7422H15V30.5H22.0312C22.5171 30.5 22.9102 30.1069 22.9102 29.6211C22.9102 29.1353 22.5171 28.7422 22.0312 28.7422Z" fill="#32393F"/>
</svg>
